Coordinates
version=1
nRows=8
nColumns=40
inDegrees=yes

Units are S.I. units (second, meters, Newtons, ...)
Angles are in degrees.

endheader
time	pelvis_tilt	pelvis_list	pelvis_rotation	pelvis_tx	pelvis_ty	pelvis_tz	hip_flexion_r	hip_adduction_r	hip_rotation_r	knee_angle_r	knee_angle_r_beta	ankle_angle_r	subtalar_angle_r	mtp_angle_r	hip_flexion_l	hip_adduction_l	hip_rotation_l	knee_angle_l	knee_angle_l_beta	ankle_angle_l	subtalar_angle_l	mtp_angle_l	lumbar_extension	lumbar_bending	lumbar_rotation	arm_flex_r	arm_add_r	arm_rot_r	elbow_flex_r	pro_sup_r	wrist_flex_r	wrist_dev_r	arm_flex_l	arm_add_l	arm_rot_l	elbow_flex_l	pro_sup_l	wrist_flex_l	wrist_dev_l
      3.33000000	     -7.10330217	     -4.39351988	      7.54803164	      0.99581706	      0.91363907	      0.42982820	      0.87386912	     -0.37573457	    -12.22045574	     21.98948912	     21.98948912	     17.77467090	     -2.40036302	     -6.35825659	     29.38388428	     -3.05827494	      6.00355809	     30.40712461	     30.40712461	     10.56212605	    -14.72381994	      6.90829286	     -8.77457915	      2.95618094	      4.28466471	     36.97315314	     -8.58987026	     13.26750757	    100.17294812	     41.22484005	      0.00000000	      0.00000000	     -5.74158314	     -9.13720987	      1.31791972	     36.07896946	     42.87630233	      0.00000000	      0.00000000
      3.34885714	     -7.20966585	     -4.36071426	      7.30331093	      0.99706167	      0.91433116	      0.42592771	      0.64833035	     -0.79076964	    -12.41668034	     22.18150818	     22.18150818	     17.12199995	     -1.93177633	     -7.38096004	     28.89713106	     -2.85293353	      5.87186248	     30.37259320	     30.37259320	     11.10833834	    -14.92535841	      7.16875724	     -8.58992308	      3.04328411	      3.91006041	     36.16874779	     -7.91583438	     13.34769321	     95.29811086	     41.54397498	      0.00000000	      0.00000000	     -5.50659400	     -9.54997026	      1.18266900	     37.15611732	     43.03745417	      0.00000000	      0.00000000
      3.36771429	     -7.29839676	     -4.29883139	      7.00895634	      0.99821010	      0.91509249	      0.42213170	      0.53657640	     -1.19561837	    -12.28427482	     22.58312043	     22.58312043	     16.65172711	     -1.87296945	     -7.62728328	     28.33096058	     -2.67230704	      5.61825275	     30.22926284	     30.22926284	     11.56751732	    -14.99887355	      7.11857847	     -8.53495232	      3.07289621	      4.53821499	     34.43291927	     -8.76730081	     13.59448448	     92.68244277	     41.64984188	      0.00000000	      0.00000000	     -4.54140793	     -9.80248954	      1.00232587	     37.96678764	     43.10147644	      0.00000000	      0.00000000
      3.38657143	     -7.39311175	     -4.20372660	      6.71147210	      0.99915070	      0.91576767	      0.41832798	      0.63917113	     -1.69166835	    -12.16371861	     23.34247811	     23.34247811	     16.09763943	     -1.94689982	     -8.20876363	     27.75761186	     -2.46836154	      5.28219767	     30.03935142	     30.03935142	     11.99675425	    -15.05134117	      7.10482163	     -8.41627938	      3.10720335	      5.11011170	     33.00792299	     -9.55809122	     13.64217322	     88.72899713	     41.81630493	      0.00000000	      0.00000000	     -3.51214640	    -10.06075161	      0.89606814	     38.81901268	     43.16483996	      0.00000000	      0.00000000
      3.40542857	     -7.40145772	     -4.18029948	      6.51567481	      0.99991536	      0.91636177	      0.41454079	      0.72510516	     -2.06671133	    -11.98902335	     24.07274827	     24.07274827	     14.39357858	     -2.92733235	    -11.86581222	     27.17729147	     -2.29638154	      5.11414008	     29.95513217	     29.95513217	     12.61811483	    -15.03830422	      7.33728316	     -8.32173718	      3.29276723	      3.63721142	     33.27094661	     -8.36236169	     14.97643573	     80.95120389	     42.36454579	      0.00000000	      0.00000000	     -3.93509634	    -10.63382608	      0.40517428	     40.44443368	     43.53710780	      0.00000000	      0.00000000
      3.42428571	     -7.43695961	     -3.99726487	      6.23694025	      1.00060796	      0.91693955	      0.41073475	      1.22833019	     -2.71799385	    -11.71485311	     25.64730737	     25.64730737	     13.78105923	     -3.49748231	    -12.31920996	     26.53192860	     -2.01255058	      4.71092761	     29.72808804	     29.72808804	     13.00377268	    -14.99770621	      7.24357891	     -8.35311073	      3.27205990	      4.21937323	     31.34544017	     -9.41355963	     15.05169497	     77.96113027	     42.48587029	      0.00000000	      0.00000000	     -2.62565371	    -10.82961655	      0.26418858	     40.93617986	     43.59946595	      0.00000000	      0.00000000
      3.44314286	     -7.42927107	     -3.97515210	      6.03774533	      1.00114366	      0.91737792	      0.40702193	      1.85966635	     -3.11259390	    -11.17208472	     27.37691418	     27.37691418	     12.36844426	     -5.11312250	    -14.37272108	     25.95386802	     -1.84819006	      4.51715905	     29.63271196	     29.63271196	     13.47965776	    -14.99788073	      7.19673897	     -8.25865853	      3.49933817	      3.78730249	     30.73202162	     -8.93685768	     14.90591404	     70.79467596	     42.85164019	      0.00000000	      0.00000000	     -1.45851405	    -11.10118606	      0.62581408	     40.11307757	     43.69360236	      0.00000000	      0.00000000
      3.46200000	     -7.38128275	     -3.81108560	      5.82617866	      1.00158691	      0.91766936	      0.40328031	      2.76772356	     -3.73217052	    -10.64227268	     29.70138823	     29.70138823	     10.84057183	     -6.89138332	    -16.54163925	     25.32134665	     -1.55271112	      4.21409130	     29.53677536	     29.53677536	     13.95222594	    -14.95095980	      7.20755565	     -8.30046308	      3.57320435	      3.62460137	     29.55412018	     -9.26421280	     15.29516925	     65.43693912	     43.13954289	      0.00000000	      0.00000000	     -0.27894366	    -11.29366420	      0.71818201	     39.90932412	     43.83163349	      0.00000000	      0.00000000
